<?xml version="1.0" standalone="no"?>
<!DOCTYPE svg PUBLIC "-//W3C//DTD SVG 20010904//EN"
 "http://www.w3.org/TR/2001/REC-SVG-20010904/DTD/svg10.dtd">
<svg version="1.0" xmlns="http://www.w3.org/2000/svg"
 width="2000.000000pt" height="2000.000000pt" viewBox="0 0 2000.000000 2000.000000"
 preserveAspectRatio="xMidYMid meet">
<metadata>
Created by potrace 1.14, written by Peter Selinger 2001-2017
</metadata>
<g transform="translate(0.000000,2000.000000) scale(0.100000,-0.100000)"
fill="#000000" stroke="none">
<path d="M1283 13466 c-4 -5 -2 -7 3 -4 5 3 34 2 64 -2 30 -4 87 -11 125 -14
39 -4 86 -9 105 -11 19 -2 82 -9 140 -15 58 -6 119 -12 135 -15 17 -2 62 -6
100 -10 39 -3 81 -8 95 -10 14 -2 57 -7 95 -11 76 -7 93 -9 175 -18 30 -3 75
-8 100 -10 25 -3 68 -7 95 -10 28 -3 95 -11 150 -16 55 -6 116 -13 135 -15 19
-2 62 -7 95 -10 59 -6 115 -12 185 -20 19 -2 67 -7 105 -11 39 -4 81 -8 95 -9
14 -2 50 -6 80 -9 30 -3 75 -8 100 -11 25 -3 70 -7 100 -10 30 -3 75 -7 100
-11 90 -11 106 -13 175 -19 39 -3 84 -8 100 -10 17 -3 57 -7 90 -10 33 -3 119
-12 190 -20 72 -8 157 -17 190 -20 33 -3 76 -8 95 -10 62 -8 122 -14 320 -35
58 -6 121 -13 140 -15 19 -2 62 -7 95 -10 60 -6 113 -12 192 -20 23 -3 68 -7
100 -10 32 -3 72 -7 88 -9 17 -3 62 -7 100 -11 39 -4 81 -8 95 -10 14 -2 75
-9 135 -15 61 -6 118 -13 127 -16 18 -5 24 7 34 71 3 22 9 58 14 80 5 22 14
72 20 110 16 104 20 126 30 170 5 22 10 47 10 55 0 13 -268 15 -2356 15 -1398
0 -2358 -4 -2361 -9z"/>
<path d="M6346 13460 c-3 -8 -8 -35 -12 -60 -4 -25 -8 -47 -9 -50 0 -3 -4 -26
-8 -51 -15 -93 -17 -105 -27 -149 -5 -25 -19 -99 -30 -165 -11 -66 -23 -131
-25 -145 -3 -14 -14 -77 -24 -140 -19 -110 -46 -261 -66 -370 -3 -14 -7 -41
-10 -60 -3 -19 -14 -82 -25 -140 -10 -58 -21 -121 -24 -140 -3 -19 -8 -45 -10
-56 -2 -12 -7 -39 -10 -60 -4 -22 -18 -100 -31 -174 -14 -74 -27 -148 -29
-165 -3 -16 -12 -70 -21 -120 -9 -49 -19 -106 -22 -125 l-5 -35 1051 0 c926 0
1052 2 1055 15 5 18 15 65 21 105 3 17 8 41 10 55 3 14 8 43 11 65 11 77 34
188 39 193 7 8 589 6 682 -2 204 -17 340 -59 399 -123 50 -55 67 -110 68 -213
l0 -95 3118 0 c2046 0 3120 4 3127 10 5 6 11 24 13 40 l3 30 -1991 0 -1990 0
0 290 c1 278 -4 388 -23 503 l-8 52 41 -5 c23 -3 61 -7 86 -9 25 -3 65 -7 90
-10 25 -3 75 -8 112 -11 37 -3 77 -8 90 -10 13 -2 55 -6 93 -10 39 -3 84 -8
100 -10 17 -2 55 -6 85 -9 131 -14 224 -24 285 -31 60 -7 123 -13 200 -20 39
-4 81 -8 95 -11 14 -2 52 -6 85 -9 33 -3 76 -8 95 -10 19 -2 62 -7 95 -10 33
-3 74 -7 90 -10 26 -3 65 -7 195 -20 14 -2 57 -6 95 -9 39 -4 81 -9 95 -11 14
-2 50 -7 80 -10 30 -3 75 -7 100 -10 25 -3 77 -8 115 -11 39 -3 78 -8 89 -10
10 -2 51 -6 90 -10 39 -3 74 -8 79 -11 4 -2 7 -2 7 0 0 2 4 28 10 58 5 30 12
72 15 94 7 47 14 90 20 125 2 14 7 43 10 65 3 23 7 50 9 60 2 11 7 38 10 60
l7 41 -1360 -1 -1360 0 -31 86 c-70 197 -177 366 -320 509 -152 152 -350 272
-578 351 l-87 29 65 -5 c68 -7 120 -12 180 -20 19 -2 64 -7 100 -10 78 -7 127
-13 280 -30 19 -2 62 -7 95 -10 33 -3 76 -7 95 -10 19 -2 62 -7 95 -10 138
-14 213 -22 280 -29 22 -3 67 -8 100 -11 33 -3 76 -8 95 -10 19 -2 60 -7 90
-10 30 -3 71 -8 90 -10 19 -2 62 -7 95 -10 186 -18 267 -27 290 -31 11 -2 52
-6 90 -9 39 -3 81 -7 95 -10 23 -4 48 -7 190 -20 66 -6 145 -15 180 -20 14 -2
54 -6 90 -10 36 -3 81 -8 100 -10 19 -3 60 -7 90 -10 30 -3 75 -7 100 -10 25
-3 65 -7 90 -9 134 -13 168 -17 275 -30 22 -3 63 -7 90 -10 45 -5 138 -14 205
-21 14 -2 77 -8 140 -15 63 -6 123 -13 133 -16 10 -3 17 0 18 8 0 7 2 20 4 28
2 8 17 92 34 185 17 94 35 192 40 220 5 27 7 52 4 55 -2 3 -1813 5 -4024 5
-3565 0 -4020 -2 -4023 -15z"/>
<path d="M14760 13470 c-8 -5 -16 -36 -26 -104 -3 -21 -8 -48 -10 -60 -10 -53
-26 -143 -29 -161 -2 -17 -7 -47 -29 -160 -2 -11 -7 -40 -12 -65 -4 -25 -8
-47 -9 -50 0 -3 -4 -27 -9 -53 -4 -27 -10 -59 -12 -70 -3 -12 -7 -31 -8 -42
-2 -11 -9 -49 -16 -85 -7 -36 -14 -74 -15 -85 -2 -11 -17 -94 -33 -185 -17
-91 -33 -176 -35 -190 -7 -38 -21 -114 -22 -120 -1 -4 -13 -68 -20 -110 -10
-57 -19 -106 -20 -110 -1 -3 -5 -27 -9 -55 -5 -27 -9 -54 -9 -60 -1 -7 257
-10 756 -11 416 0 759 -3 762 -5 2 -3 0 -21 -5 -40 -5 -19 -11 -52 -15 -74
-10 -70 -25 -159 -30 -185 -11 -49 -18 -108 -16 -125 1 -7 358 -10 1055 -10
l1054 0 27 155 c30 175 33 190 41 243 4 20 12 37 18 38 6 0 352 1 769 1 416 1
757 2 757 3 0 1 5 27 10 56 6 30 28 151 50 269 21 118 41 229 44 245 3 17 8
44 11 60 3 17 10 53 15 80 5 28 12 66 15 85 3 19 8 42 10 50 2 8 6 31 9 50 3
19 19 109 36 200 17 91 33 180 36 199 3 18 8 43 10 55 2 11 7 35 9 51 9 49 45
248 49 272 3 11 7 41 11 65 l7 43 -2582 0 c-1420 0 -2585 -2 -2590 -5z"/>
<path d="M1100 12398 c0 -5 3 -7 8 -5 4 3 33 1 64 -3 32 -5 90 -11 130 -15 40
-3 84 -8 98 -10 14 -2 59 -6 100 -10 41 -3 82 -8 90 -10 8 -2 47 -7 85 -10 39
-3 86 -8 105 -10 19 -2 60 -7 90 -10 30 -3 71 -8 90 -10 19 -2 64 -7 100 -10
36 -3 82 -8 103 -10 20 -3 54 -7 75 -10 20 -2 66 -7 102 -10 36 -4 76 -8 90
-10 14 -2 56 -7 94 -10 38 -3 84 -8 102 -11 19 -2 60 -6 91 -9 32 -2 74 -7 93
-9 19 -3 62 -8 95 -11 33 -4 74 -8 90 -10 17 -2 62 -7 100 -10 39 -4 77 -8 85
-10 8 -2 51 -6 94 -10 44 -3 93 -8 110 -10 17 -2 54 -7 81 -9 28 -3 66 -7 85
-10 19 -3 67 -8 105 -11 39 -3 77 -8 85 -10 8 -2 51 -6 95 -10 44 -3 94 -8
110 -10 49 -6 147 -17 275 -30 82 -8 98 -10 180 -19 66 -8 124 -14 205 -21 33
-3 71 -8 85 -10 14 -3 54 -7 90 -10 36 -3 81 -7 100 -10 19 -2 64 -7 100 -11
36 -3 72 -8 80 -9 8 -2 50 -6 92 -9 42 -4 85 -8 95 -10 10 -2 52 -7 93 -11 41
-4 89 -9 105 -10 17 -2 57 -6 90 -10 33 -3 85 -9 116 -13 66 -10 79 -7 79 19
0 11 7 52 15 92 8 40 17 88 20 107 3 19 7 46 10 60 3 14 7 39 10 55 2 17 9 54
15 84 5 29 10 59 10 65 0 9 -577 12 -2355 12 -1337 0 -2355 -3 -2355 -8z"/>
<path d="M920 11329 c19 -4 67 -10 105 -14 39 -3 106 -10 150 -15 74 -8 166
-18 225 -25 14 -1 59 -6 100 -10 79 -9 4086 -14 4100 -5 5 3 11 21 15 41 l7
36 -2369 0 c-1302 -1 -2352 -4 -2333 -8z"/>
<path d="M351 10846 c2 -2 38 -7 79 -10 41 -4 109 -11 150 -16 41 -5 104 -12
140 -15 36 -4 79 -8 95 -10 17 -2 61 -7 98 -10 37 -4 76 -8 85 -10 9 -1 53 -6
97 -9 44 -4 87 -9 95 -11 8 -2 47 -6 85 -10 39 -3 89 -8 112 -11 l41 -5 7 43
c3 24 9 51 11 61 5 16 -26 17 -547 17 -304 0 -550 -2 -548 -4z"/>
<path d="M1529 10835 c-1 -8 -2 -18 -3 -22 -1 -5 -6 -33 -11 -63 -5 -30 -9
-57 -10 -60 -8 -34 -15 -71 -19 -100 -3 -19 -14 -84 -25 -145 -11 -60 -23
-126 -26 -145 -3 -19 -8 -48 -11 -63 -3 -16 -7 -38 -9 -50 -1 -12 -12 -74 -23
-137 -12 -63 -24 -131 -27 -150 -3 -19 -14 -82 -24 -140 -36 -197 -60 -335
-66 -367 -9 -58 -14 -87 -25 -142 -5 -29 -10 -60 -10 -67 0 -12 46 -14 255
-14 167 0 255 4 255 10 0 11 57 342 65 376 5 21 9 21 197 22 213 0 268 5 344
33 63 24 158 84 201 128 31 33 32 33 105 27 40 -3 82 -8 93 -10 11 -2 54 -7
95 -10 90 -8 149 -14 210 -22 88 -10 106 -12 176 -19 l71 -6 10 60 10 61 -350
0 c-192 0 -347 3 -345 8 2 4 24 49 49 100 l44 93 70 -6 c67 -6 102 -10 183
-20 20 -2 66 -7 102 -10 36 -3 76 -8 90 -10 14 -3 56 -7 94 -10 38 -3 72 -8
77 -11 10 -6 19 26 22 81 l2 40 -302 0 c-166 1 -305 3 -308 7 -3 3 2 39 11 79
10 41 18 84 18 96 0 20 4 22 41 18 70 -8 128 -14 190 -20 62 -6 132 -14 175
-20 14 -2 61 -6 105 -10 44 -4 83 -9 88 -12 9 -5 22 30 30 82 l6 40 -311 0
-312 0 -2 104 -3 103 57 -7 c81 -9 119 -13 182 -19 30 -3 96 -10 145 -15 297
-33 268 -36 278 27 5 30 6 56 3 59 -3 3 -157 5 -343 5 l-338 0 -18 43 c-41 99
-128 166 -256 198 -93 24 -970 25 -972 2z m670 -431 c40 -17 50 -44 39 -108
-4 -28 -10 -64 -12 -81 -3 -16 -8 -48 -11 -70 -15 -95 -58 -131 -162 -134
-170 -6 -162 -8 -153 37 5 20 11 55 14 77 3 22 10 65 16 95 6 30 13 71 16 90
7 54 16 94 21 103 8 13 197 6 232 -9z"/>
<path d="M11691 10845 c3 -2 34 -7 68 -10 35 -3 80 -7 100 -10 20 -2 68 -7
106 -11 39 -3 79 -8 90 -10 10 -2 49 -6 85 -9 36 -3 81 -8 100 -10 19 -3 82
-9 140 -15 58 -6 121 -12 140 -14 104 -13 169 -19 199 -20 35 -1 35 0 47 57
l11 57 -545 0 c-300 0 -543 -2 -541 -5z"/>
<path d="M12840 10728 c-13 -68 -31 -165 -40 -215 l-17 -93 184 0 184 0 -5
-32 c-3 -18 -7 -42 -10 -53 -2 -11 -7 -40 -11 -65 -4 -25 -9 -52 -10 -60 -6
-34 -19 -105 -20 -110 0 -3 -4 -26 -8 -51 -12 -70 -16 -97 -32 -184 -8 -44
-17 -96 -20 -115 -3 -19 -10 -62 -16 -95 -6 -33 -12 -69 -14 -80 -1 -11 -12
-72 -24 -135 -11 -63 -23 -128 -26 -145 -3 -16 -8 -51 -11 -77 l-6 -48 255 0
255 0 9 58 c5 31 13 56 18 55 6 -1 42 -4 80 -7 39 -4 86 -8 105 -11 19 -2 64
-7 100 -10 36 -3 76 -8 90 -10 14 -2 52 -7 85 -10 86 -8 155 -15 195 -20 19
-3 58 -7 85 -10 79 -8 156 -15 206 -21 l45 -5 12 51 c7 28 12 56 12 61 0 5
-205 9 -511 9 l-511 0 5 33 c3 17 12 70 21 117 9 47 16 89 16 93 0 5 8 6 18 3
9 -3 53 -8 97 -12 44 -3 87 -7 95 -9 8 -2 44 -6 80 -10 36 -3 79 -8 95 -10 17
-2 64 -6 105 -10 41 -3 82 -8 90 -10 8 -2 47 -7 87 -10 40 -4 85 -8 100 -10
58 -7 179 -18 207 -19 29 -1 31 2 42 57 l11 57 -276 0 c-152 1 -382 0 -512 0
l-236 -1 14 78 c7 43 15 87 17 98 3 11 5 31 5 44 1 23 2 23 79 17 42 -4 91 -8
107 -10 17 -2 59 -7 95 -10 98 -10 161 -17 179 -21 9 -1 56 -6 106 -10 49 -4
92 -8 95 -10 3 -2 41 -6 85 -10 44 -4 94 -8 110 -10 17 -2 58 -6 92 -10 l61
-6 11 51 c6 28 11 55 11 61 0 6 -185 8 -510 7 -448 -3 -510 -1 -510 12 0 8 5
33 9 55 5 22 12 58 15 80 3 22 9 53 12 68 l6 29 77 -7 c42 -3 87 -8 101 -10
44 -6 113 -14 185 -20 39 -4 77 -8 85 -10 8 -2 48 -7 89 -10 41 -4 82 -8 90
-10 9 -1 54 -6 101 -10 47 -4 87 -8 90 -10 3 -2 46 -6 96 -10 l92 -6 7 47 c3
25 9 52 11 58 4 9 -118 12 -503 11 -279 0 -511 1 -514 2 -5 2 5 75 26 183 4
19 8 41 8 48 0 14 16 13 242 -13 28 -3 68 -7 90 -10 22 -2 72 -7 110 -10 39
-3 81 -8 95 -10 27 -4 94 -11 175 -20 28 -3 68 -7 90 -9 22 -3 69 -8 105 -11
36 -3 74 -7 84 -8 19 -2 27 20 30 88 l1 30 -507 0 c-373 0 -508 3 -508 11 0 6
3 26 6 43 l7 31 186 0 187 0 2 28 c1 15 6 41 10 57 7 25 13 30 38 29 36 -1
179 -14 202 -19 9 -1 52 -6 95 -10 43 -3 88 -8 100 -10 12 -2 54 -6 92 -10 39
-3 82 -8 98 -11 22 -5 27 -2 27 15 0 12 1 24 2 29 1 4 5 22 9 40 6 30 5 32
-20 33 -14 0 -160 1 -323 1 -269 0 -298 2 -298 17 0 9 9 63 20 121 11 58 20
108 20 112 0 5 -281 8 -624 8 l-624 0 -22 -122z"/>
<path d="M10994 10605 c-265 -46 -412 -185 -507 -480 -69 -215 -106 -508 -83
-654 17 -103 78 -204 152 -251 94 -59 162 -74 339 -75 179 0 245 6 331 30 70
20 76 25 79 62 4 53 17 168 21 186 1 9 6 54 9 98 6 73 4 81 -10 75 -87 -33
-188 -48 -319 -48 -76 0 -142 4 -146 9 -9 8 70 475 96 570 9 34 23 58 38 68
54 36 253 37 369 3 23 -7 41 -8 45 -2 12 13 132 344 132 362 0 13 -88 41 -168
52 -83 12 -296 9 -378 -5z"/>
<path d="M17123 10605 c-136 -25 -269 -89 -334 -161 -109 -123 -189 -317 -234
-574 -18 -105 -23 -170 -21 -285 2 -103 6 -142 23 -187 45 -121 120 -189 253
-229 63 -19 99 -23 225 -23 159 -1 218 4 301 27 55 16 168 70 195 93 9 8 18
12 20 10 2 -2 39 -7 81 -11 43 -3 88 -8 100 -10 13 -2 55 -6 93 -10 39 -3 84
-8 100 -10 17 -2 57 -7 90 -10 64 -6 217 -22 275 -30 19 -2 63 -7 96 -10 l61
-7 8 47 c3 26 9 54 12 61 4 12 -67 14 -441 14 -392 0 -480 4 -438 22 14 5 88
110 111 156 l22 43 62 -6 c34 -4 76 -8 92 -10 17 -2 62 -6 100 -10 39 -4 81
-8 95 -10 14 -2 54 -7 90 -10 36 -3 79 -8 95 -10 17 -1 59 -6 95 -10 36 -3 81
-8 101 -11 41 -5 44 -2 54 70 l7 46 -387 0 c-365 0 -387 1 -380 18 4 9 18 58
33 109 14 50 30 90 36 88 6 -2 43 -6 81 -10 118 -10 242 -23 290 -30 17 -2 61
-7 98 -10 37 -4 76 -8 85 -9 9 -2 51 -7 93 -10 l76 -7 11 53 c5 29 8 56 5 61
-2 4 -145 7 -316 7 -172 0 -337 0 -368 0 l-56 0 13 73 c7 39 13 87 13 106 l1
34 83 -8 c45 -3 96 -8 112 -10 17 -2 55 -6 85 -9 30 -4 66 -8 80 -10 14 -3 61
-7 105 -11 44 -4 87 -8 95 -10 52 -10 179 -15 183 -8 3 5 9 32 12 59 l7 51
-367 -1 c-202 -1 -370 1 -375 4 -4 3 -9 53 -12 111 -3 103 -3 107 17 104 11
-2 49 -6 85 -9 36 -4 106 -11 155 -16 160 -18 179 -20 235 -25 30 -3 66 -8 80
-10 14 -2 59 -6 100 -10 41 -3 82 -8 91 -11 13 -3 19 8 28 52 6 32 8 60 5 63
-3 3 -186 6 -406 6 -346 0 -402 2 -409 15 -4 8 -17 35 -29 60 -29 61 -85 118
-142 145 -26 12 -45 25 -41 29 3 3 -7 6 -23 6 -16 0 -45 5 -64 11 -54 16 -323
19 -407 4z m272 -432 c-3 -22 -8 -50 -10 -63 -3 -14 -9 -50 -15 -80 -30 -177
-62 -348 -71 -385 -13 -50 -42 -81 -84 -90 -32 -6 -235 -9 -239 -3 -1 1 12 82
30 178 18 96 35 195 39 220 3 25 8 52 10 60 2 8 6 26 9 40 15 87 20 106 30
119 22 28 71 39 189 40 l118 2 -6 -38z"/>
<path d="M345 10589 l-40 -6 45 -2 c25 -2 52 -4 60 -6 8 -1 47 -6 85 -9 39 -4
86 -9 105 -11 19 -2 62 -6 95 -10 74 -7 132 -13 188 -20 23 -3 130 -14 237
-25 107 -11 209 -22 227 -25 35 -4 38 0 48 73 6 41 5 42 -22 43 -159 4 -998 3
-1028 -2z"/>
<path d="M3568 10592 c-9 -2 -19 -19 -24 -40 -4 -20 -8 -39 -9 -42 0 -3 -4
-26 -8 -51 -4 -25 -10 -57 -12 -70 -2 -13 -11 -67 -20 -119 -8 -52 -22 -129
-30 -170 -8 -41 -16 -91 -19 -110 -3 -19 -12 -71 -20 -115 -8 -44 -17 -96 -20
-115 -6 -38 -22 -129 -30 -170 -3 -14 -15 -81 -26 -150 -12 -69 -23 -138 -26
-155 -3 -16 -9 -47 -13 -67 -5 -20 -6 -39 -3 -43 3 -3 104 -5 224 -5 166 0
220 3 223 13 4 10 32 169 60 332 12 71 13 73 45 71 35 -1 27 21 91 -238 l43
-178 249 0 249 0 -5 23 c-2 12 -8 31 -12 41 -9 20 -3 20 150 1 17 -2 59 -6 95
-10 36 -3 79 -8 95 -10 17 -2 57 -6 90 -10 33 -3 76 -7 95 -10 120 -13 149
-15 153 -8 3 4 8 32 12 61 l6 52 -358 0 -359 0 -32 103 c-37 118 -39 130 -14
123 9 -3 44 -8 77 -11 33 -3 78 -7 100 -10 22 -3 67 -7 100 -10 33 -3 94 -10
135 -15 41 -5 107 -12 145 -15 39 -4 84 -8 100 -10 17 -2 53 -7 81 -10 l51 -6
12 57 c6 32 9 59 8 61 -2 2 -193 3 -424 3 l-420 0 -11 26 c-19 39 -14 60 16
79 15 10 48 39 73 65 38 40 52 48 75 45 16 -2 56 -7 89 -10 33 -4 76 -8 95
-10 68 -8 136 -15 190 -20 30 -3 71 -7 90 -10 19 -3 55 -7 80 -9 25 -3 73 -8
106 -11 34 -4 64 -3 67 2 3 4 8 32 12 61 l7 52 -371 0 -370 0 24 48 c13 26 31
73 40 105 16 57 17 58 48 53 18 -2 66 -7 107 -11 41 -3 82 -8 90 -10 8 -2 44
-6 80 -10 109 -10 164 -16 190 -20 14 -2 62 -7 107 -10 l81 -7 6 31 c3 17 8
44 11 59 l6 28 -338 -1 c-186 0 -344 1 -350 3 -8 2 -11 13 -8 26 3 11 7 57 9
101 3 77 4 80 27 79 20 0 86 -6 209 -19 14 -1 57 -6 95 -10 39 -4 81 -8 95
-10 14 -2 57 -7 95 -10 39 -4 90 -10 115 -14 71 -11 76 -7 87 57 l9 57 -368 0
-367 -1 -21 59 c-25 69 -82 130 -146 158 -24 11 -44 22 -44 25 0 3 3 3 8 1 4
-3 41 -8 82 -12 41 -3 86 -8 100 -10 25 -3 134 -16 180 -20 14 -1 59 -6 100
-10 41 -4 86 -8 100 -10 14 -1 54 -6 90 -10 36 -3 76 -8 90 -10 33 -5 168 -18
199 -19 17 -1 25 5 26 19 1 11 5 38 9 60 l6 40 -908 0 c-500 0 -916 -1 -924
-3z m532 -404 c30 -11 40 -27 35 -53 -2 -11 -7 -38 -10 -59 -12 -90 -47 -117
-154 -122 -35 -2 -68 -1 -71 1 -4 3 -4 24 0 47 5 24 11 61 15 83 4 22 8 47 10
55 2 8 4 25 4 38 1 22 4 23 74 21 39 -1 83 -6 97 -11z"/>
<path d="M5493 10586 c-5 -7 -23 -94 -38 -176 -2 -14 -11 -68 -20 -120 -10
-52 -19 -108 -22 -125 -2 -16 -11 -68 -19 -115 -8 -47 -30 -177 -50 -290 -19
-113 -37 -212 -39 -220 -3 -8 -7 -33 -10 -55 -3 -22 -7 -51 -10 -65 -3 -14
-12 -65 -20 -115 -8 -49 -18 -100 -20 -112 l-5 -23 474 0 474 0 6 23 c3 12 6
32 6 45 0 13 3 21 8 19 4 -3 45 -8 92 -12 47 -4 87 -8 90 -10 3 -2 41 -6 85
-10 44 -3 91 -8 105 -10 14 -2 52 -6 85 -10 33 -3 78 -8 100 -11 22 -2 65 -6
96 -9 l56 -4 10 59 10 60 -364 0 c-200 0 -362 3 -360 8 3 4 8 29 11 55 4 26
11 71 16 99 6 28 10 52 10 53 0 1 28 -2 63 -6 34 -4 96 -11 137 -15 41 -3 83
-8 92 -9 9 -2 48 -6 85 -10 37 -3 84 -8 103 -10 19 -2 62 -7 95 -10 33 -3 76
-8 97 -11 40 -5 35 -13 54 86 l6 30 -174 0 c-95 0 -369 1 -609 3 l-436 2 4 30
c3 17 10 57 17 90 l12 60 202 3 c176 2 202 4 202 18 0 16 15 16 180 -1 19 -2
58 -6 85 -9 28 -3 68 -7 90 -10 22 -3 69 -8 105 -11 68 -6 138 -14 180 -20 14
-2 57 -7 96 -10 l72 -6 7 47 c3 25 9 53 12 60 4 12 -62 14 -406 14 -226 0
-411 3 -411 8 0 4 7 42 15 85 8 43 15 82 15 86 0 5 -88 8 -196 8 -107 1 -197
3 -200 6 -5 4 8 91 21 155 5 22 5 22 225 22 l219 0 17 53 16 53 54 -7 c30 -4
85 -10 122 -14 37 -3 83 -8 102 -10 19 -2 60 -7 90 -10 30 -3 78 -8 105 -11
28 -3 66 -7 85 -9 19 -1 62 -6 95 -9 33 -4 69 -8 80 -9 15 -2 21 8 31 52 7 30
11 57 9 61 -2 3 -170 5 -375 5 -204 -1 -374 3 -376 7 -3 4 9 53 26 108 l31
101 37 -5 c68 -9 136 -17 187 -21 58 -6 104 -11 235 -25 52 -6 120 -13 150
-16 30 -3 67 -7 82 -10 29 -4 33 1 43 74 6 41 5 42 -22 43 -254 5 -1636 2
-1640 -5z"/>
<path d="M7283 10592 c-25 -3 -33 -9 -37 -30 -6 -25 -91 -521 -102 -587 -3
-16 -7 -37 -9 -45 -2 -8 -6 -31 -9 -50 -5 -30 -37 -215 -51 -290 -2 -14 -9
-54 -15 -90 -5 -36 -12 -75 -14 -86 -2 -12 -7 -37 -10 -55 -3 -19 -12 -67 -19
-107 -12 -61 -12 -75 -1 -79 17 -6 740 3 779 10 17 3 44 8 60 11 47 8 145 44
182 66 19 11 44 18 56 15 19 -4 72 -9 192 -20 46 -4 157 -16 185 -20 14 -2 57
-6 95 -10 39 -4 84 -8 100 -10 17 -2 59 -6 95 -10 36 -3 76 -8 90 -10 88 -15
150 -16 151 -3 1 14 3 30 14 77 l7 31 -459 0 -459 0 49 52 c26 28 63 78 80
110 l32 59 79 -7 c44 -3 87 -7 97 -9 10 -2 49 -7 86 -10 37 -4 78 -8 90 -10
12 -2 57 -6 100 -10 43 -4 85 -8 93 -10 16 -4 157 -17 204 -19 29 -1 30 2 42
57 l11 57 -261 1 c-144 0 -320 0 -391 -1 l-131 -1 36 110 c30 97 37 110 55
106 11 -2 47 -7 80 -10 33 -3 69 -7 80 -9 11 -2 58 -7 104 -11 47 -4 92 -8
100 -10 9 -1 54 -6 101 -10 47 -4 87 -8 90 -10 14 -8 160 -15 161 -8 0 4 2 15
4 23 2 8 6 32 10 53 l6 37 -376 0 -377 0 6 28 c11 47 14 66 21 125 6 50 13 61
35 59 16 -1 130 -14 160 -17 19 -3 62 -7 96 -10 33 -3 69 -7 80 -9 10 -2 54
-7 96 -11 43 -3 90 -8 105 -10 16 -2 62 -6 104 -10 l76 -7 6 38 c15 89 56 81
-364 80 -240 -1 -373 3 -374 9 -2 6 -6 56 -9 112 l-5 102 32 -4 c18 -2 61 -7
97 -10 36 -4 72 -8 80 -10 8 -2 51 -6 95 -10 44 -4 94 -8 110 -10 17 -3 57 -7
90 -10 33 -4 71 -8 85 -10 14 -2 61 -7 105 -10 44 -4 83 -9 87 -11 8 -5 14 16
22 76 l6 45 -410 0 -410 -1 -26 49 c-37 71 -80 114 -148 147 -109 52 -187 61
-558 63 -183 1 -347 1 -365 -1z m599 -402 c23 -7 39 -18 43 -31 6 -18 1 -83
-11 -144 -2 -11 -6 -33 -9 -50 -3 -16 -10 -52 -15 -80 -5 -27 -12 -66 -15 -85
-21 -127 -34 -181 -47 -198 -28 -33 -71 -44 -188 -46 -111 -2 -118 -1 -114 17
2 10 13 73 24 140 28 163 29 168 35 197 2 14 7 39 10 55 2 17 7 41 9 55 3 14
8 43 11 65 4 22 8 47 10 55 2 8 4 25 4 38 1 21 4 22 109 22 59 0 124 -5 144
-10z"/>
<path d="M8190 10590 c-45 -5 -30 -8 170 -26 14 -1 50 -5 80 -8 30 -4 78 -9
105 -11 28 -3 66 -7 85 -10 19 -2 62 -7 95 -10 33 -3 76 -8 95 -10 38 -5 187
-21 290 -31 113 -12 113 -12 121 19 4 16 9 42 11 59 l3 31 -505 1 c-278 0
-525 -1 -550 -4z"/>
<path d="M9383 10592 c-29 -2 -53 -6 -53 -10 0 -4 -5 -34 -10 -67 -6 -33 -13
-75 -16 -94 -6 -35 -10 -60 -19 -101 -7 -40 -14 -81 -21 -130 -3 -25 -8 -48
-10 -51 -1 -3 -6 -28 -9 -55 -4 -27 -8 -56 -10 -64 -2 -8 -7 -28 -9 -45 -7
-42 -55 -316 -60 -340 -2 -11 -7 -40 -11 -65 -4 -25 -9 -54 -11 -65 -2 -10 -6
-37 -9 -60 -3 -22 -8 -47 -10 -55 -4 -15 -13 -64 -20 -110 -2 -14 -7 -44 -10
-67 l-7 -43 235 0 235 0 7 46 c12 83 5 81 175 60 14 -2 57 -7 95 -10 39 -4 81
-9 95 -11 14 -2 52 -7 85 -10 135 -13 264 -26 387 -41 l37 -4 -32 49 -32 50
-397 0 c-219 1 -398 3 -398 5 0 2 5 28 10 57 13 64 23 129 23 147 0 10 21 12
96 7 53 -4 98 -8 102 -10 3 -2 37 -6 75 -10 38 -3 80 -7 93 -10 13 -2 58 -7
100 -10 42 -3 83 -8 91 -10 8 -2 48 -7 89 -10 66 -6 73 -5 67 10 -3 9 -6 34
-6 56 l0 39 -346 0 -346 0 7 48 c3 26 12 74 18 107 l12 59 49 -3 c27 -1 58 -5
70 -7 11 -2 50 -6 86 -10 36 -3 76 -7 90 -9 14 -2 52 -7 85 -10 33 -3 74 -8
90 -10 17 -2 64 -7 106 -10 85 -8 84 -8 88 63 l2 42 -331 0 -330 0 4 27 c3 15
10 49 16 77 11 54 18 96 19 109 1 5 4 6 9 4 4 -3 59 -10 122 -16 63 -7 131
-14 150 -17 19 -2 78 -9 130 -15 52 -5 127 -13 167 -17 l72 -8 12 49 c6 26 8
51 4 55 -4 4 -149 8 -323 9 -174 0 -321 2 -325 2 -8 1 -4 54 8 111 3 14 9 43
13 65 7 34 11 40 32 39 31 -2 165 -14 204 -19 16 -2 59 -6 95 -9 36 -4 84 -9
106 -11 81 -11 122 -15 185 -20 l65 -6 17 43 c10 24 17 47 15 53 -1 6 -132 10
-352 10 l-350 0 3 30 c2 17 11 73 22 125 10 52 17 96 15 98 -4 4 -360 8 -422
4z"/>
<path d="M9855 10590 c-3 -5 -1 -10 4 -10 6 0 11 5 11 10 0 6 -2 10 -4 10 -3
0 -8 -4 -11 -10z"/>
<path d="M9880 10588 c0 -5 10 -8 23 -9 12 0 30 -2 40 -4 10 -2 48 -6 85 -9
37 -3 78 -8 92 -10 26 -5 101 -12 210 -21 36 -3 74 -8 85 -10 11 -2 54 -7 95
-11 41 -3 78 -8 81 -10 3 -1 16 7 30 19 13 12 37 32 53 45 16 12 25 22 20 23
-62 5 -814 2 -814 -3z"/>
<path d="M11644 10589 c-1 -3 2 -6 9 -6 14 0 134 -12 192 -19 22 -3 62 -7 90
-9 27 -3 65 -7 85 -9 19 -3 64 -8 100 -11 36 -4 76 -8 90 -10 24 -3 81 -9 198
-21 31 -3 73 -7 92 -10 19 -2 62 -6 95 -9 33 -3 72 -8 87 -10 30 -6 33 0 42
75 l6 45 -541 0 c-298 0 -543 -3 -545 -6z"/>
<path d="M14838 10592 c-21 -2 -38 -8 -38 -13 0 -8 -50 -304 -65 -389 -3 -14
-9 -52 -15 -85 -5 -33 -12 -71 -15 -85 -3 -14 -8 -41 -11 -60 -3 -19 -35 -200
-70 -403 -35 -202 -64 -372 -64 -377 0 -6 85 -10 224 -10 l224 0 7 38 c4 20 9
46 11 57 1 11 14 86 28 167 14 81 26 149 26 151 0 2 15 3 33 2 32 -1 32 -3 54
-86 13 -46 24 -95 27 -109 2 -14 9 -38 16 -55 6 -16 11 -31 10 -33 -2 -4 11
-64 21 -99 l11 -33 249 0 c137 0 249 2 249 3 0 2 -9 30 -20 61 l-19 57 66 -6
c36 -3 80 -8 97 -10 17 -2 56 -6 86 -9 30 -3 75 -7 100 -10 25 -3 68 -8 95
-11 28 -3 68 -7 90 -10 51 -5 135 -14 205 -20 30 -3 69 -8 87 -10 l31 -5 -31
50 -32 49 -399 3 -398 3 -37 113 c-21 61 -35 113 -32 113 12 3 157 -10 186
-16 11 -3 53 -7 93 -10 41 -3 88 -7 105 -10 69 -9 125 -15 182 -20 33 -3 74
-7 90 -10 17 -2 59 -6 95 -10 l65 -7 -3 56 -4 56 -281 1 c-155 0 -340 0 -410
-1 l-128 -1 -14 35 c-20 47 -19 49 13 68 15 9 50 39 77 67 l50 51 55 -5 c59
-6 126 -14 175 -20 29 -4 75 -9 205 -21 36 -3 76 -7 90 -10 14 -2 57 -7 96
-10 69 -6 71 -5 77 17 4 13 7 39 7 57 l0 32 -341 0 c-269 0 -340 3 -336 13 37
83 58 138 63 165 l7 34 66 -7 c36 -3 84 -8 106 -11 22 -2 60 -6 85 -9 25 -3
63 -7 85 -9 22 -3 87 -10 145 -16 58 -6 115 -12 126 -15 19 -4 23 2 33 40 6
24 11 50 11 57 0 12 -53 14 -302 13 -167 0 -311 1 -321 4 -16 3 -18 11 -13 60
3 31 5 79 6 108 l0 52 53 -4 c28 -3 68 -7 87 -10 32 -4 112 -13 185 -21 17 -1
68 -6 115 -10 47 -3 88 -8 91 -10 3 -2 39 -6 80 -9 l74 -7 21 54 20 53 -368 0
c-280 -1 -368 2 -368 11 0 26 -39 103 -71 138 -40 46 -105 80 -183 96 -54 11
-673 21 -778 12z m540 -415 c13 -14 13 -25 2 -92 -18 -107 -41 -126 -158 -131
l-73 -3 5 37 c7 53 25 163 32 191 5 23 7 24 91 18 58 -3 90 -10 101 -20z"/>
<path d="M15976 10589 c2 -4 41 -10 86 -14 46 -4 97 -9 113 -11 17 -3 53 -6
80 -9 28 -2 70 -7 95 -9 25 -3 68 -8 95 -11 28 -3 68 -7 90 -10 71 -8 160 -17
175 -19 14 -1 118 72 119 84 1 3 -192 5 -428 5 -236 0 -427 -3 -425 -6z"/>
<path d="M17630 10588 c0 -5 12 -8 28 -9 15 0 34 -2 43 -4 9 -1 47 -6 85 -9
69 -6 114 -11 189 -20 22 -3 69 -8 105 -11 36 -3 81 -8 100 -10 19 -2 60 -7
90 -10 97 -9 154 -15 190 -20 43 -6 144 -16 186 -20 31 -3 32 -2 38 53 4 30 4
57 2 59 -8 8 -1056 8 -1056 1z"/>
<path d="M18809 10592 c-26 -3 -28 -8 -44 -100 -10 -53 -19 -108 -21 -122 -3
-14 -9 -47 -14 -75 -5 -27 -12 -66 -15 -85 -13 -82 -29 -171 -38 -215 -6 -26
-17 -92 -22 -130 -2 -16 -13 -82 -24 -145 -12 -63 -24 -128 -26 -145 -3 -16
-12 -66 -20 -110 -7 -44 -16 -93 -19 -110 -15 -94 -18 -113 -26 -142 -4 -17
-5 -34 -2 -37 3 -3 105 -6 227 -6 l222 0 28 158 c15 86 29 168 32 182 6 39 23
132 28 159 5 25 12 37 19 30 1 -2 52 -98 111 -214 59 -115 121 -234 137 -262
l29 -53 179 0 c201 0 183 -8 200 93 5 34 12 73 15 87 8 44 124 703 130 740 3
19 8 42 10 50 2 8 7 40 10 70 4 30 8 57 10 60 6 9 48 264 49 294 l1 29 -170
-1 c-93 0 -193 -1 -220 -1 l-51 -1 -18 -102 c-25 -144 -24 -138 -49 -288 -13
-74 -27 -135 -32 -135 -5 0 -23 27 -40 60 -17 33 -57 110 -89 170 -32 61 -79
148 -104 195 -25 47 -48 89 -53 94 -7 8 -283 15 -340 8z"/>
<path d="M274 10329 c-1 -3 2 -6 9 -6 19 0 168 -14 202 -18 17 -3 77 -9 135
-15 124 -13 175 -18 233 -25 23 -2 71 -7 107 -10 36 -4 75 -8 88 -10 13 -2 53
-7 90 -10 37 -4 94 -10 127 -15 33 -4 63 -5 67 -1 3 3 11 30 16 59 8 45 7 52
-7 53 -60 5 -1064 3 -1067 -2z"/>
<path d="M11938 10333 c6 -2 18 -2 25 0 6 3 1 5 -13 5 -14 0 -19 -2 -12 -5z"/>
<path d="M11988 10328 c4 -3 41 -9 82 -13 107 -9 149 -13 200 -20 25 -3 65 -8
90 -10 25 -3 70 -7 100 -10 30 -3 75 -8 100 -10 25 -3 88 -10 140 -15 52 -6
120 -13 150 -16 30 -3 81 -9 112 -13 32 -4 62 -5 67 -1 6 3 13 30 17 60 l6 55
-535 0 c-295 0 -533 -3 -529 -7z"/>
<path d="M218 10073 c7 -3 16 -2 19 1 4 3 -2 6 -13 5 -11 0 -14 -3 -6 -6z"/>
<path d="M256 10071 c3 -3 15 -6 27 -7 27 -1 132 -13 167 -19 14 -2 54 -7 90
-10 36 -4 79 -8 95 -10 17 -2 62 -6 100 -10 39 -3 86 -8 105 -11 47 -6 92 -11
173 -19 37 -3 89 -9 115 -13 26 -4 74 -7 107 -7 53 0 60 2 62 20 0 11 4 36 7
56 l7 35 -531 0 c-291 0 -527 -2 -524 -5z"/>
<path d="M5973 10074 c1 -1 27 -5 57 -9 96 -10 144 -16 180 -20 19 -2 58 -7
85 -10 28 -2 73 -7 100 -10 28 -3 75 -7 105 -10 30 -3 75 -8 100 -11 25 -3 64
-7 87 -9 50 -4 139 -14 173 -20 63 -10 188 -16 193 -8 2 4 7 31 11 59 l6 50
-550 0 c-302 0 -549 -1 -547 -2z"/>
<path d="M11903 10074 c2 -2 211 -26 337 -39 19 -2 62 -6 95 -10 76 -7 124
-13 200 -21 33 -3 71 -7 85 -9 117 -12 164 -17 178 -20 9 -1 53 -6 97 -10 44
-4 83 -9 86 -11 8 -5 29 109 22 116 -2 3 -252 5 -554 6 -302 0 -548 0 -546 -2z"/>
<path d="M181 9816 c5 -5 72 -14 154 -21 33 -3 74 -7 90 -10 17 -2 62 -7 100
-10 39 -3 86 -8 105 -10 83 -11 165 -20 273 -30 73 -7 148 -16 177 -20 14 -2
57 -7 97 -10 l71 -6 6 30 c3 17 9 45 12 61 l6 30 -548 0 c-301 0 -545 -2 -543
-4z"/>
<path d="M11905 9810 c33 -5 92 -11 130 -15 39 -3 81 -8 95 -10 14 -2 54 -7
90 -11 84 -8 113 -11 180 -18 30 -4 75 -9 100 -11 182 -18 258 -26 280 -30 75
-11 159 -15 163 -7 3 4 9 31 13 60 l6 51 -558 -1 c-323 0 -534 -4 -499 -8z"/>
<path d="M495 9560 c-347 -5 -368 -8 -185 -26 19 -2 58 -6 85 -8 28 -3 79 -8
115 -11 36 -3 72 -8 80 -10 8 -2 49 -7 90 -10 41 -4 86 -8 100 -10 14 -2 54
-7 90 -10 36 -4 76 -8 90 -10 14 -1 57 -5 95 -9 39 -4 87 -9 107 -12 40 -5 41
-4 53 73 l7 42 -184 3 c-101 2 -345 1 -543 -2z"/>
<path d="M2480 9560 c-162 -3 -284 -7 -270 -9 31 -4 66 -7 160 -15 41 -4 86
-9 100 -11 70 -10 111 -15 175 -21 39 -3 81 -8 95 -9 14 -2 54 -6 90 -9 36 -4
103 -11 150 -16 78 -8 118 -13 237 -25 46 -4 46 -4 58 72 l7 42 -254 3 c-139
2 -386 1 -548 -2z"/>
<path d="M11925 9560 c-66 -4 -102 -7 -80 -9 22 -1 48 -4 57 -6 9 -2 54 -6
100 -10 46 -4 90 -9 99 -10 8 -2 47 -6 85 -10 38 -4 82 -8 98 -10 16 -2 64 -7
105 -11 42 -3 85 -8 96 -10 11 -2 47 -6 80 -9 58 -5 99 -9 195 -20 25 -3 66
-8 91 -10 l47 -4 6 37 c3 20 9 47 12 59 l6 23 -438 2 c-242 2 -493 1 -559 -2z"/>
<path d="M71 9296 c2 -2 38 -7 79 -10 42 -4 87 -8 100 -11 14 -2 57 -7 95 -10
39 -4 84 -8 100 -10 88 -8 163 -16 185 -20 14 -3 52 -7 85 -10 67 -5 143 -13
195 -20 53 -7 129 -15 191 -20 l57 -4 7 46 c4 25 9 52 12 59 4 12 -84 14 -553
14 -306 0 -555 -2 -553 -4z"/>
<path d="M2141 9296 c4 -4 63 -11 369 -42 30 -3 71 -7 90 -9 19 -2 82 -9 140
-15 105 -11 131 -14 225 -25 28 -3 70 -8 95 -10 25 -3 71 -7 103 -10 53 -6 57
-4 57 14 0 12 0 22 0 24 1 1 5 19 9 40 l9 37 -551 0 c-303 0 -548 -2 -546 -4z"/>
<path d="M11761 9296 c2 -2 38 -6 79 -10 41 -3 86 -8 100 -10 14 -3 57 -7 95
-11 97 -9 153 -15 200 -20 111 -13 116 -14 290 -30 28 -3 66 -7 85 -10 19 -2
60 -7 90 -10 30 -3 76 -8 102 -11 25 -3 48 -1 51 3 3 4 8 32 12 61 l7 52 -558
0 c-306 0 -555 -2 -553 -4z"/>
<path d="M4876 8731 c8 -8 43 -8 38 0 -2 4 -13 7 -24 6 -10 -1 -17 -3 -14 -6z"/>
<path d="M4930 8728 c0 -5 8 -8 18 -9 9 0 31 -2 47 -3 177 -19 177 -19 173 0
-3 17 -15 19 -121 19 -64 0 -117 -3 -117 -7z"/>
<path d="M5514 8729 c-2 -3 -6 -21 -9 -40 -3 -19 -12 -70 -20 -114 -8 -44 -17
-96 -21 -115 -3 -19 -14 -82 -24 -140 -10 -58 -33 -186 -50 -285 -39 -225 -35
-205 -54 -305 -8 -47 -18 -98 -21 -115 -3 -16 -7 -41 -9 -55 -16 -88 -28 -158
-31 -175 -8 -48 -46 -262 -51 -285 -2 -14 -7 -41 -10 -60 -8 -51 -11 -68 -45
-255 -16 -93 -33 -188 -36 -210 -3 -22 -6 -44 -7 -50 -1 -12 2103 -15 2110 -3
4 7 62 333 80 448 3 19 7 42 9 50 2 8 7 31 10 50 3 19 10 60 15 90 5 30 12 71
15 90 3 19 10 58 15 85 5 28 12 68 15 90 3 22 7 47 10 55 2 8 6 33 10 55 3 22
14 90 25 150 10 61 21 126 25 145 17 101 47 271 56 316 l10 50 732 0 c768 1
868 3 1044 29 244 37 432 94 658 201 137 65 483 289 469 304 -8 7 -4915 6
-4920 -1z"/>
<path d="M14830 8729 c0 -3 6 -6 13 -6 14 -1 94 -9 185 -18 56 -6 62 -5 62 12
0 17 -10 18 -130 18 -71 0 -130 -2 -130 -6z"/>
<path d="M15421 8615 c-25 -141 -27 -150 -41 -235 -5 -36 -12 -76 -15 -90 -3
-14 -12 -65 -21 -115 -8 -49 -17 -101 -20 -115 -2 -14 -7 -41 -10 -60 -2 -19
-11 -69 -19 -110 -8 -41 -17 -95 -21 -120 -3 -25 -8 -54 -10 -65 -3 -11 -20
-112 -40 -225 -44 -255 -41 -240 -48 -270 -3 -14 -8 -41 -10 -60 -3 -19 -17
-98 -30 -175 -13 -77 -27 -156 -30 -175 -9 -58 -16 -94 -22 -118 -9 -42 -18
-106 -18 -137 l-1 -30 1048 0 c711 -1 1051 3 1056 10 4 5 13 42 19 80 7 39 14
81 17 95 3 14 7 41 10 60 3 19 7 46 10 60 5 23 29 163 41 235 3 17 18 104 34
195 16 91 32 182 36 204 3 21 7 46 9 55 1 9 6 36 11 61 4 25 8 47 9 50 2 8 16
93 21 125 3 17 7 37 9 45 2 8 6 33 10 55 5 38 13 84 21 130 2 11 9 49 15 84 5
36 11 67 13 70 2 3 7 28 10 55 6 43 38 235 52 306 2 14 7 41 10 60 3 19 12 67
19 105 7 39 11 72 8 75 -2 2 -478 5 -1057 5 l-1053 0 -22 -120z"/>
<path d="M311 8126 c2 -2 40 -7 84 -11 44 -3 87 -8 95 -10 8 -2 49 -7 90 -10
41 -4 86 -8 100 -10 14 -2 59 -7 100 -10 41 -4 82 -8 90 -10 8 -2 44 -6 80 -9
57 -6 179 -19 290 -31 19 -2 67 -7 105 -10 39 -4 81 -8 95 -10 36 -5 115 -14
280 -30 30 -3 71 -7 90 -10 92 -11 139 -16 185 -20 28 -3 95 -9 150 -15 193
-21 269 -29 320 -35 22 -3 63 -7 90 -10 61 -6 237 -24 285 -30 19 -2 62 -7 95
-10 33 -3 80 -8 105 -11 25 -2 68 -7 95 -10 28 -3 66 -7 85 -9 19 -2 62 -7 95
-10 33 -3 96 -10 140 -15 44 -5 112 -12 150 -15 39 -4 81 -8 95 -10 14 -2 54
-6 90 -10 36 -4 76 -8 90 -10 14 -2 57 -6 95 -10 39 -3 86 -8 105 -11 19 -3
58 -7 85 -10 28 -2 68 -6 90 -9 22 -2 72 -7 110 -11 39 -3 78 -8 87 -9 9 -2
52 -7 95 -10 43 -4 85 -8 93 -10 8 -1 49 -6 90 -10 41 -3 86 -8 100 -10 91
-14 150 -15 151 -3 0 7 2 20 4 28 6 30 45 248 51 286 3 21 11 69 18 107 l13
67 -2380 0 c-1309 0 -2378 -2 -2376 -4z"/>
<path d="M10231 8126 c2 -2 40 -7 84 -11 44 -4 91 -8 105 -10 14 -2 57 -7 95
-10 39 -4 81 -8 95 -10 30 -5 92 -12 175 -20 33 -3 76 -8 95 -10 19 -2 62 -7
95 -10 76 -7 140 -14 185 -20 19 -2 67 -7 105 -10 39 -4 81 -8 95 -10 14 -3
52 -7 85 -10 33 -3 76 -7 95 -10 19 -2 66 -7 105 -10 38 -3 77 -8 85 -10 8 -2
49 -7 90 -10 41 -4 89 -9 105 -11 17 -2 57 -6 90 -9 33 -3 78 -8 100 -10 22
-3 60 -7 85 -10 25 -2 90 -9 145 -15 55 -6 123 -13 150 -16 28 -3 66 -7 85 -9
19 -2 64 -7 100 -10 36 -3 76 -8 90 -10 23 -4 48 -6 190 -20 45 -4 115 -12
180 -21 19 -2 63 -6 98 -9 34 -3 75 -7 90 -9 15 -3 56 -7 92 -11 36 -3 81 -8
100 -10 19 -2 62 -7 95 -10 33 -3 74 -8 90 -10 17 -2 62 -7 100 -10 39 -4 84
-8 100 -10 17 -2 59 -7 95 -10 36 -4 72 -8 80 -10 8 -2 49 -6 90 -9 41 -4 89
-9 105 -11 17 -2 57 -6 90 -9 33 -4 76 -8 95 -11 19 -2 64 -7 100 -10 36 -3
76 -8 90 -10 98 -17 255 -23 255 -10 2 20 35 220 50 295 3 14 10 52 15 85 6
33 13 70 15 83 l5 22 -2381 0 c-1310 0 -2380 -2 -2378 -4z"/>
<path d="M131 7046 c2 -2 33 -7 69 -11 91 -9 138 -14 190 -20 25 -2 68 -7 95
-10 28 -3 68 -7 90 -9 22 -3 69 -7 105 -11 36 -3 76 -8 90 -10 14 -3 52 -7 85
-10 74 -6 158 -15 205 -20 103 -13 129 -16 175 -20 47 -4 192 -20 295 -31 25
-2 65 -7 90 -9 25 -3 61 -7 80 -10 19 -2 67 -7 105 -10 39 -4 84 -8 100 -10
17 -2 55 -6 85 -9 30 -3 96 -10 145 -16 50 -5 117 -12 150 -15 33 -3 71 -8 85
-10 14 -2 57 -7 95 -10 39 -4 81 -8 95 -10 14 -2 58 -7 99 -10 41 -4 82 -8 90
-10 9 -1 50 -6 91 -10 41 -3 86 -8 100 -10 38 -5 118 -14 190 -20 36 -4 76 -8
90 -10 14 -2 59 -6 100 -10 41 -3 82 -8 90 -10 8 -2 47 -7 85 -10 39 -3 86 -8
105 -10 19 -2 80 -9 135 -15 55 -6 118 -13 140 -15 22 -2 67 -7 100 -10 33 -3
74 -8 90 -10 17 -2 62 -7 100 -10 39 -4 81 -8 95 -10 14 -2 56 -7 95 -10 38
-4 76 -8 85 -10 8 -1 53 -6 100 -10 47 -4 93 -9 102 -10 9 -2 46 -7 81 -10
l64 -7 8 39 c4 21 9 49 11 63 3 14 9 48 14 75 5 28 12 68 16 90 3 22 7 47 9
55 2 8 7 35 10 60 6 44 9 58 21 100 5 20 1 20 -2372 20 -1308 0 -2375 -2
-2373 -4z"/>
<path d="M10051 7046 c2 -2 33 -7 69 -11 36 -3 83 -8 105 -11 22 -2 63 -6 90
-9 88 -10 139 -15 195 -20 30 -3 71 -7 90 -10 32 -4 172 -19 290 -31 52 -5
120 -13 170 -19 19 -2 62 -7 95 -10 33 -3 101 -10 150 -15 97 -11 155 -17 238
-25 28 -3 68 -8 87 -10 19 -2 64 -7 100 -11 36 -3 76 -7 90 -9 14 -1 59 -6
100 -10 41 -4 82 -8 90 -10 8 -1 51 -6 94 -10 43 -4 86 -8 95 -10 9 -2 48 -6
86 -9 39 -4 86 -8 105 -11 43 -6 103 -12 195 -20 39 -4 81 -8 95 -10 14 -2 52
-7 85 -10 33 -3 76 -8 95 -10 19 -3 85 -9 145 -15 61 -6 124 -13 140 -15 17
-2 55 -6 85 -9 30 -3 98 -10 150 -16 52 -6 118 -13 145 -15 113 -12 152 -16
185 -20 19 -2 60 -7 90 -10 30 -3 71 -8 90 -10 19 -2 64 -7 100 -10 36 -3 76
-8 90 -10 14 -2 59 -7 100 -10 41 -4 82 -8 90 -10 9 -2 47 -6 85 -9 39 -4 86
-9 105 -11 19 -2 60 -7 90 -9 30 -3 78 -8 107 -11 57 -8 56 -9 68 75 4 25 9
54 11 65 2 11 7 34 9 50 36 203 46 263 50 283 l5 22 -2376 0 c-1308 0 -2375
-2 -2373 -4z"/>
</g>
</svg>
